<svg width="24" height="24" viewBox="0 0 24 24" fill="none" xmlns="http://www.w3.org/2000/svg">
<path d="M12.35 21.8998V17.1C12.35 16.5477 12.7977 16.1 13.35 16.1C13.9023 16.1 14.35 16.5477 14.35 17.1V21.8998C14.35 22.4521 13.9023 22.8998 13.35 22.8998C12.7977 22.8998 12.35 22.4521 12.35 21.8998ZM8.61169 14.724C9.00222 14.3335 9.63523 14.3335 10.0258 14.724C10.4161 15.1145 10.4162 15.7476 10.0258 16.1381L6.6322 19.5316C6.24168 19.9221 5.60769 19.9221 5.21716 19.5316C4.82697 19.1411 4.82686 18.508 5.21716 18.1176L8.61169 14.724ZM16.6742 14.723C17.0647 14.3328 17.6978 14.3326 18.0883 14.723L19.7572 16.392C20.1476 16.7824 20.1474 17.4155 19.7572 17.806C19.3667 18.1966 18.7337 18.1966 18.3431 17.806L16.6742 16.1371C16.2837 15.7466 16.2837 15.1135 16.6742 14.723ZM7.64978 10.3998C8.202 10.3998 8.64967 10.8476 8.64978 11.3998C8.64978 11.9521 8.20207 12.3998 7.64978 12.3998H2.84998C2.29769 12.3998 1.84998 11.9521 1.84998 11.3998C1.85008 10.8476 2.29776 10.3998 2.84998 10.3998H7.64978ZM21.1498 10.3998C21.702 10.3998 22.1497 10.8476 22.1498 11.3998C22.1498 11.9521 21.7021 12.3998 21.1498 12.3998H19.0502C18.4979 12.3998 18.0502 11.9521 18.0502 11.3998C18.0503 10.8476 18.498 10.3998 19.0502 10.3998H21.1498ZM5.21716 3.26794C5.60769 2.87742 6.24168 2.87742 6.6322 3.26794L10.0258 6.66248C10.4162 7.05301 10.4162 7.68605 10.0258 8.07654C9.63526 8.46693 9.00219 8.46693 8.61169 8.07654L5.21716 4.68201C4.82699 4.29149 4.82684 3.65837 5.21716 3.26794ZM18.3431 4.99255C18.7335 4.60216 19.3666 4.60242 19.7572 4.99255C20.1477 5.38308 20.1477 6.01609 19.7572 6.40662L18.0883 8.07654C17.6978 8.46703 17.0647 8.46697 16.6742 8.07654C16.2837 7.68601 16.2837 7.053 16.6742 6.66248L18.3431 4.99255ZM12.35 5.69958V2.09998C12.35 1.54769 12.7977 1.09998 13.35 1.09998C13.9023 1.09998 14.35 1.54769 14.35 2.09998V5.69958C14.35 6.25187 13.9023 6.69958 13.35 6.69958C12.7977 6.69958 12.35 6.25187 12.35 5.69958Z" fill="#F6F6F6"/>
</svg>
